:SAMPLES-PER-SECOND 30
:FRAME-RANGE 1-2045
:FULLY-SPECIFIED
:DEGREES
448
root  23.9932 35.8994 26.8965 -0.444839 78.2085 -2.41943
RightUpLeg  -32.0407 -17.7274 -11.5673
RightLeg  52.2479 -8.80699 -12.3603
RightFoot  -11.0719 -0.107372 13.4772
RightToes  5.82063e-011 0 -3.6325e-017
Spine  24.3183 0.125814 9.68038
Spine1  0.724106 1.44505 1.82108
HEad  -8.47361 10.5804 -12.113
LeftShoulder1  2.33932 -7.19241 -15.0409
LeftArm  -37.9802 -65.1205 -19.0467
LeftForeArm  16.7061 6.57397 -13.8473
LeftHand  0.197582 0.126726 -4.41279
RightShoulder  21.2974 40.7234 41.0282
RightArm  -18.6545 34.9255 21.1506
RightForeArm  -9.91086 4.49569 14.3158
RightHand  1.07177 3.75309 13.2793
LeftUpLeg  -44.9737 27.3791 -3.98456
LeftLeg  58.4805 5.29537 9.78173
LeftFoot  3.14615 1.12634 -8.99935
LeftToes  -3.90176e-010 -2.48536e-010 1.05482e-011
449
root  25.3978 35.8077 25.5473 0.271988 74.1069 -1.87398
RightUpLeg  -38.7111 -19.9178 0.0367848
RightLeg  47.5373 -7.70665 -9.2649
RightFoot  -11.0103 -0.115048 13.753
RightToes  5.82063e-011 0 -3.6325e-017
Spine  26.1012 0.538516 10.3875
Spine1  0.00848284 1.96779 0.990847
HEad  -9.33604 13.8997 -12.1767
LeftShoulder1  2.41276 -7.1596 -15.8674
LeftArm  -39.7611 -63.3775 -16.6069
LeftForeArm  14.7231 7.66572 -13.3986
LeftHand  0.142917 0.903935 -3.87504
RightShoulder  22.3596 41.9838 41.8945
RightArm  -16.247 35.6777 24.0153
RightForeArm  -9.69114 3.60987 14.7831
RightHand  1.27643 4.32771 14.8635
LeftUpLeg  -47.8333 28.0059 -1.43796
LeftLeg  66.5363 -0.00325801 0.711644
LeftFoot  15.1483 2.79153 -12.2215
LeftToes  -3.90176e-010 -2.48536e-010 1.05482e-011
450
root  26.9142 35.126 24.14 2.82744 69.7511 1.21394
RightUpLeg  -44.2848 -21.352 10.4327
RightLeg  45.2762 -1.95098 -2.4502
RightFoot  -7.37213 -0.131292 2.34314
RightToes  5.82063e-011 0 -3.6325e-017
Spine  27.2166 0.847271 10.7426
Spine1  -0.353274 2.34904 -0.871534
HEad  -9.95723 16.4343 -12.061
LeftShoulder1  2.46962 -7.02018 -16.7826
LeftArm  -40.7965 -61.614 -14.0327
LeftForeArm  13.0053 8.08483 -13.4015
LeftHand  0.132065 1.31833 -4.03144
RightShoulder  23.7844 42.6237 44.0935
RightArm  -12.887 35.479 27.3112
RightForeArm  -11.5862 3.41101 15.2684
RightHand  1.3392 4.14711 15.9044
LeftUpLeg  -47.6845 26.3604 3.43615
LeftLeg  73.4083 -2.27426 -7.662
LeftFoot  15.6631 4.14594 -17.5555
LeftToes  -3.90176e-010 -2.48536e-010 1.05482e-011
451
root  28.4445 34.5201 22.8076 8.40533 67.8538 8.7926
RightUpLeg  -44.8928 -19.4545 11.7949
RightLeg  44.8435 -4.26095 -4.86567
RightFoot  -6.65023 0.492264 -13.0384
RightToes  5.82063e-011 0 -3.6325e-017
Spine  28.0108 1.14442 8.6517
Spine1  0.494334 2.33617 -1.48423
HEad  -10.3715 16.6979 -11.8419
LeftShoulder1  2.57646 -7.34027 -17.1007
LeftArm  -41.1755 -61.1815 -13.6521
LeftForeArm  11.506 8.07337 -13.3381
LeftHand  0.133244 1.46306 -4.24333
RightShoulder  24.0105 41.7195 45.5517
RightArm  -10.6999 35.9805 30.1591
RightForeArm  -12.3148 1.94295 15.8543
RightHand  1.2919 3.9261 15.7172
LeftUpLeg  -44.7081 22.184 8.16226
LeftLeg  73.6717 -0.336772 -0.284027
LeftFoot  11.4699 2.7272 -13.8139
LeftToes  -3.90176e-010 -2.48536e-010 1.05482e-011
452
root  30.0168 33.8018 21.5445 13.3115 67.0977 16.2315
RightUpLeg  -45.4465 -11.9209 3.03739
RightLeg  54.0035 -8.44676 -12.6844
RightFoot  -9.93394 0.0606806 -10.3477
RightToes  5.82063e-011 0 -3.6325e-017
Spine  29.496 1.22706 6.9926
Spine1  1.0831 2.68758 -2.43511
HEad  -10.4582 15.7117 -11.9678
LeftShoulder1  2.75151 -8.08965 -17.0726
LeftArm  -42.0762 -62.2409 -14.4503
LeftForeArm  11.5046 8.00044 -12.8669
LeftHand  0.123118 1.53493 -4.0269
RightShoulder  24.1617 41.6285 45.9597
RightArm  -13.0362 35.288 31.2695
RightForeArm  -15.2111 1.56764 15.5204
RightHand  1.32997 3.7559 16.4925
LeftUpLeg  -39.8903 16.8063 13.7021
LeftLeg  66.7651 1.16743 3.7077
LeftFoot  6.88968 1.45937 -9.34256
LeftToes  -3.90176e-010 -2.48536e-010 1.05482e-011
453
root  31.5987 32.9839 20.1677 12.116 67.7247 16.3173
RightUpLeg  -46.4937 -13.7135 -1.27071
RightLeg  61.1853 -5.60876 -11.4545
RightFoot  -12.3284 -0.129402 -5.35519
RightToes  5.82063e-011 0 -3.6325e-017
Spine  29.3338 0.0675553 7.70669
Spine1  1.78262 2.50704 -3.88378
HEad  -12.8389 16.5688 -14.4004
LeftShoulder1  2.76135 -8.26306 -16.7832
LeftArm  -44.5162 -62.0355 -15.3158
LeftForeArm  9.48286 7.16572 -11.2653
LeftHand  0.110656 1.7674 -3.92813
RightShoulder  24.9401 41.8393 47.277
RightArm  -13.7153 34.4445 30.9796
RightForeArm  -20.026 5.12143 14.8072
RightHand  1.41279 4.06976 16.9216
LeftUpLeg  -35.3749 11.7691 20.841
LeftLeg  54.5621 -0.338501 -0.0300097
LeftFoot  6.08902 1.54018 -10.2692
LeftToes  -3.90176e-010 -2.48536e-010 1.05482e-011
454
root  33.1367 32.4123 18.8228 8.57442 66.9765 12.6639
RightUpLeg  -47.69 -18.3132 -2.3959
RightLeg  64.939 -2.99366 -7.62278
RightFoot  -13.7307 -0.214433 -5.83175
RightToes  5.82063e-011 0 -3.6325e-017
Spine  28.1408 0.282227 7.55855
Spine1  2.11795 2.20047 -1.5915
HEad  -14.105 19.7999 -14.9793
LeftShoulder1  2.75938 -7.94903 -17.4635
LeftArm  -46.6725 -60.2717 -15.8396
LeftForeArm  3.60678 5.57518 -9.86194
LeftHand  0.0928198 2.62257 -4.62505
RightShoulder  25.5156 41.2463 49.1131
RightArm  -8.89323 33.43 31.261
RightForeArm  -23.9657 11.0203 13.2606
RightHand  1.57831 4.79596 17.521
LeftUpLeg  -29.3779 7.95484 26.8123
LeftLeg  39.5056 -5.41649 -4.41122
LeftFoot  7.82954 2.86415 -17.1356
LeftToes  -3.90176e-010 -2.48536e-010 1.05482e-011
455
root  34.536 31.7502 17.2843 8.68851 64.0652 13.6588
RightUpLeg  -48.6035 -17.7857 -7.51547
RightLeg  68.7456 -1.29108 -4.46077
RightFoot  -14.2859 -0.153926 -2.2309
RightToes  5.82063e-011 0 -3.6325e-017
Spine  29.2606 0.363178 6.27548
Spine1  0.135658 2.60479 -3.42734
HEad  -14.0874 22.2572 -15.9427
LeftShoulder1  2.75594 -7.49172 -18.5141
LeftArm  -48.5603 -56.37 -17.0326
LeftForeArm  -4.1337 2.89034 -8.39717
LeftHand  0.0370672 4.45395 -8.58536
RightShoulder  24.3695 39.4895 48.9062
RightArm  5.57384 31.2099 34.5985
RightForeArm  -37.9764 20.7537 8.22733
RightHand  1.55273 4.56298 17.6513
LeftUpLeg  -24.6564 0.299692 28.8663
LeftLeg  35.5503 -9.07976 -6.56977
LeftFoot  -4.67214 1.93421 -31.9355
LeftToes  -3.90176e-010 -2.48536e-010 1.05482e-011
456
root  35.9257 31.3175 15.6724 6.74806 60.649 12.0458
RightUpLeg  -48.9868 -13.7203 -11.7453
RightLeg  70.1245 -0.983275 -3.872
RightFoot  -13.644 -0.0586962 1.6773
RightToes  5.82063e-011 0 -3.6325e-017
Spine  30.3699 0.446675 6.5429
Spine1  -1.29746 3.43415 -5.82135
HEad  -16.4813 23.725 -18.7072
LeftShoulder1  2.69558 -6.364 -20.9317
LeftArm  -48.3731 -51.1067 -18.2071
LeftForeArm  -10.8242 -4.38411 -8.8139
LeftHand  0.141008 3.77882 -12.3424
RightShoulder  23.6249 38.4178 48.6685
RightArm  7.28864 28.5159 35.2858
RightForeArm  -29.7024 29.6026 7.83918
RightHand  1.49356 4.88718 16.4271
LeftUpLeg  -24.3998 -1.78885 27.5964
LeftLeg  43.1869 -7.66778 -7.26138
LeftFoot  -16.5725 -1.52227 -34.4641
LeftToes  -3.90176e-010 -2.48536e-010 1.05482e-011
457
root  37.1186 31.0951 14.0265 5.18381 58.1801 10.7261
RightUpLeg  -48.5175 -9.4842 -16.0566
RightLeg  69.3719 -0.890192 -3.43279
RightFoot  -12.6982 -0.0132176 6.16066
RightToes  5.82063e-011 0 -3.6325e-017
Spine  31.1073 0.911924 7.51149
Spine1  -1.17545 4.33651 -6.26087
HEad  -21.0992 24.0443 -20.6435
LeftShoulder1  2.55134 -5.32923 -22.5951
LeftArm  -41.3099 -47.0115 -20.4878
LeftForeArm  -14.8527 -14.0548 -9.06931
LeftHand  0.278157 3.06992 -15.2327
RightShoulder  23.3113 36.5868 50.3372
RightArm  3.80352 25.9805 34.4161
RightForeArm  -19.5356 42.2081 11.3051
RightHand  1.15341 3.39332 14.9092
LeftUpLeg  -27.0317 0.406775 25.2485
LeftLeg  52.474 -6.37245 -8.38094
LeftFoot  -19.8333 -2.32201 -32.0611
LeftToes  -3.90176e-010 -2.48536e-010 1.05482e-011
458
root  37.9748 31.2911 12.7929 5.70442 57.5634 10.9837
RightUpLeg  -47.3192 -7.67876 -19.6815
RightLeg  66.6884 -0.938476 -3.08229
RightFoot  -11.0929 -0.0963013 9.56324
RightToes  5.82063e-011 0 -3.6325e-017
Spine  31.1053 1.2143 7.41767
Spine1  -0.6177 5.10376 -8.55923
HEad  -23.9365 23.9879 -20.7964
LeftShoulder1  2.49706 -4.80172 -23.8394
LeftArm  -32.2374 -42.5133 -23.1572
LeftForeArm  -20.6787 -23.6219 -6.04855
LeftHand  0.567454 1.51661 -17.4093
RightShoulder  23.1394 35.2876 51.7039
RightArm  1.59916 22.1471 34.571
RightForeArm  -14.9885 55.6827 17.8681
RightHand  0.502836 -0.45813 11.9435
LeftUpLeg  -29.056 3.49468 22.3008
LeftLeg  56.5058 -5.65737 -8.6325
LeftFoot  -20.044 -2.204 -29.888
LeftToes  -3.90176e-010 -2.48536e-010 1.05482e-011
459
root  38.6603 31.5742 11.6807 5.15161 57.9629 9.92926
RightUpLeg  -45.5837 -6.81607 -21.7242
RightLeg  63.4303 -1.34313 -3.51191
RightFoot  -9.24629 -0.26902 11.2307
RightToes  5.82063e-011 0 -3.6325e-017
Spine  31.1077 1.21658 7.84244
Spine1  -0.408455 5.3438 -9.30694
HEad  -25.0902 23.5347 -20.8846
LeftShoulder1  2.32463 -4.19915 -23.9555
LeftArm  -30.8468 -38.4104 -24.8827
LeftForeArm  -21.9799 -29.0923 -7.38564
LeftHand  0.526815 2.09881 -19.2249
RightShoulder  23.0241 34.3624 52.7342
RightArm  2.34858 19.0864 35.581
RightForeArm  -12.9574 60.2769 21.444
RightHand  0.274432 -0.990559 7.45028
LeftUpLeg  -30.587 5.0866 20.5606
LeftLeg  58.7611 -6.0335 -10.098
LeftFoot  -20.7754 -2.19039 -27.5463
LeftToes  -3.90176e-010 -2.48536e-010 1.05482e-011
460
root  39.1267 31.9448 10.8071 5.11243 59.0269 8.88318
RightUpLeg  -43.8956 -5.5837 -23.0931
RightLeg  59.9226 -2.17946 -4.57187
RightFoot  -7.73417 -0.481699 13.5602
RightToes  5.82063e-011 0 -3.6325e-017
Spine  30.3802 1.80394 7.5494
Spine1  0.172427 5.7121 -8.77373
HEad  -25.0107 22.1898 -20.2826
LeftShoulder1  2.28233 -4.07648 -23.8815
LeftArm  -27.7045 -36.3385 -26.3244
LeftForeArm  -26.2942 -29.9085 -7.77723
LeftHand  0.593427 2.17572 -22.0853
RightShoulder  22.8078 33.5919 53.3439
RightArm  4.95487 17.6498 35.7994
RightForeArm  -10.3688 61.054 21.9776
RightHand  -0.0575162 -2.22472 -1.69777
LeftUpLeg  -32.4893 6.62319 19.0521
LeftLeg  59.7002 -6.49263 -11.3131
LeftFoot  -20.0691 -1.84278 -25.3307
LeftToes  -3.90176e-010 -2.48536e-010 1.05482e-011
461
root  39.3595 32.3864 10.1502 4.08759 60.9287 7.20819
RightUpLeg  -41.3946 -4.50197 -23.0865
RightLeg  56.5888 -1.43691 -2.7902
RightFoot  -8.15014 -0.522623 16.6502
RightToes  5.82063e-011 0 -3.6325e-017
Spine  30.5204 2.15464 7.53899
Spine1  0.219302 6.0498 -8.80407
HEad  -24.6851 20.9541 -18.6338
LeftShoulder1  2.31034 -4.0643 -24.3212
LeftArm  -25.406 -36.6353 -27.5728
LeftForeArm  -28.3953 -29.3004 -7.7023
LeftHand  0.535464 2.52082 -22.5391
RightShoulder  23.5201 34.2037 54.0798
RightArm  4.892 17.3938 35.1291
RightForeArm  -11.5553 58.8207 20.0246
RightHand  -0.186139 -1.86251 -5.884
LeftUpLeg  -34.1204 6.75544 18.2685
LeftLeg  59.6924 -6.79814 -11.8498
LeftFoot  -17.8941 -1.27968 -23.8946
LeftToes  -3.90176e-010 -2.48536e-010 1.05482e-011
